<mxfile host="app.diagrams.net" modified="2020-05-02T11:34:01.727Z" agent="5.0 (Macintosh; Intel Mac OS X 10_15_4) AppleWebKit/605.1.15 (KHTML, like Gecko) Version/13.1 Safari/605.1.15" etag="fYo26HniR9LHjeDj256l" version="13.0.5" type="github">
  <diagram id="HDwnPnsOy4uLpxsVf0ml" name="Page-1">
    <mxGraphModel dx="312" dy="195" grid="1" gridSize="10" guides="1" tooltips="1" connect="1" arrows="1" fold="1" page="1" pageScale="1" pageWidth="827" pageHeight="1169" math="0" shadow="0">
      <root>
        <mxCell id="0" />
        <mxCell id="1" parent="0" />
        <mxCell id="IMrU2__sPg4LdoYcU0Ze-35" value="" style="edgeStyle=orthogonalEdgeStyle;rounded=0;orthogonalLoop=1;jettySize=auto;html=1;" edge="1" parent="1" source="IMrU2__sPg4LdoYcU0Ze-29" target="IMrU2__sPg4LdoYcU0Ze-30">
          <mxGeometry relative="1" as="geometry" />
        </mxCell>
        <mxCell id="IMrU2__sPg4LdoYcU0Ze-29" value="打开B站" style="rounded=1;whiteSpace=wrap;html=1;" vertex="1" parent="1">
          <mxGeometry x="250" y="420" width="120" height="40" as="geometry" />
        </mxCell>
        <mxCell id="IMrU2__sPg4LdoYcU0Ze-32" value="" style="edgeStyle=orthogonalEdgeStyle;rounded=0;orthogonalLoop=1;jettySize=auto;html=1;" edge="1" parent="1" source="IMrU2__sPg4LdoYcU0Ze-30" target="IMrU2__sPg4LdoYcU0Ze-31">
          <mxGeometry relative="1" as="geometry" />
        </mxCell>
        <mxCell id="IMrU2__sPg4LdoYcU0Ze-30" value="搜索feintKotlin的视频" style="rounded=1;whiteSpace=wrap;html=1;" vertex="1" parent="1">
          <mxGeometry x="250" y="500" width="120" height="40" as="geometry" />
        </mxCell>
        <mxCell id="IMrU2__sPg4LdoYcU0Ze-34" value="" style="edgeStyle=orthogonalEdgeStyle;rounded=0;orthogonalLoop=1;jettySize=auto;html=1;" edge="1" parent="1" source="IMrU2__sPg4LdoYcU0Ze-31" target="IMrU2__sPg4LdoYcU0Ze-33">
          <mxGeometry relative="1" as="geometry" />
        </mxCell>
        <mxCell id="IMrU2__sPg4LdoYcU0Ze-31" value="长按点赞按钮" style="rounded=1;whiteSpace=wrap;html=1;" vertex="1" parent="1">
          <mxGeometry x="250" y="620" width="120" height="40" as="geometry" />
        </mxCell>
        <mxCell id="IMrU2__sPg4LdoYcU0Ze-33" value="一键三连" style="rounded=1;whiteSpace=wrap;html=1;" vertex="1" parent="1">
          <mxGeometry x="250" y="740" width="120" height="40" as="geometry" />
        </mxCell>
      </root>
    </mxGraphModel>
  </diagram>
</mxfile>
